<?xml version="1.0" encoding="utf-8"?>
<!DOCTYPE svg PUBLIC "-//W3C//DTD SVG 1.1//EN" "http://www.w3.org/Graphics/SVG/1.1/DTD/svg11.dtd">


<svg fill="gray" version="1.1" id="Layer_1" xmlns="http://www.w3.org/2000/svg" xmlns:xlink="http://www.w3.org/1999/xlink" x="0px" y="0px" viewBox="0 0 1000 1000">
    <path d="M765.4,275.4c-122.5,0-224.6,102.1-224.6,224.6c0,53.1,20.4,102.1,53.1,142.9H406.1c32.7-40.8,53.1-89.8,53.1-142.9c0-122.5-102.1-224.6-224.6-224.6S10,377.5,10,500s102.1,224.6,224.6,224.6h530.8C887.9,724.6,990,622.5,990,500S887.9,275.4,765.4,275.4L765.4,275.4z M234.6,642.9C157,642.9,91.7,577.6,91.7,500c0-77.6,65.3-142.9,142.9-142.9c77.6,0,142.9,65.3,142.9,142.9C377.5,577.6,312.2,642.9,234.6,642.9L234.6,642.9z M765.4,642.9c-77.6,0-142.9-65.3-142.9-142.9c0-77.6,65.3-142.9,142.9-142.9S908.3,422.4,908.3,500C908.3,577.6,843,642.9,765.4,642.9L765.4,642.9z"/>
</svg>